# xmcd
#
# Track frame offsets:
#	150
#	15061
#	32249
#	45365
#	58085
#	75834
#	88556
#	99314
#	113586
#	132222
#	141280
#	156440
#	174603
#	185447
#	198358
#	214546
#	226150
#	238718
#	250377
#	262352
#	278122
#	290613
#
# Disc length: 4087
#
# Revision: 1
# Processed by: cddbd v1.5.1PL0 Copyright (c) Steve Scherf et al.
# Submitted via: FreeRIP 2.51 
# Normalized: r0:TDELIM( - ),TSWAP
#
DISCID=2b0ff516
DTITLE=Various Artist - Country Divas
DYEAR=2002
DGENRE=Country
TTITLE0=Oliva Newton John - Take Me Home Country Roads
TTITLE1=Suzy Bogguss - All My Loving
TTITLE2=Crystal Gayle - Talking In Your Sleep
TTITLE3=Tanya Tucker - Would You Lay With Me In A Field Of Stone
TTITLE4=Rosanne Cash - Take My Body
TTITLE5=Deanna Carter - You Still Shake Me
TTITLE6=Barbara Mandrell - I'll Be Your Jukebox Tonight
TTITLE7=Billy Dale - Asleep At The Wheel
TTITLE8=Juice Newton - Angel In The Morning
TTITLE9=Gail Davis - Blue Heartache
TTITLE10=Jesi Coulter - Thats The Way A Cowboy Rocks And Rolls
TTITLE11=Tanya Tucker - Thunder Rolls
TTITLE12=Wanda Jackson - Fancy Satin Pillows
TTITLE13=Billie Jo Spears - 57 Chevrolet
TTITLE14=Linda Davis - Just Enough Rope
TTITLE15=Crystal Gayle - Dont It Make My Brown Eyes Blue
TTITLE16=Barbara Mandrell - You Wouldnt Know Love
TTITLE17=Lacy J Dalton - Love Hurts
TTITLE18=Wanda Jackson - Stand By Your Man
TTITLE19=Suzy Bogguss - Somewhere Between
TTITLE20=Billie Jo Spears - I Dont Wanna Play House
TTITLE21=Jean Spears - Blanket On The Ground
EXTD=
EXTT0=
EXTT1=
EXTT2=
EXTT3=
EXTT4=
EXTT5=
EXTT6=
EXTT7=
EXTT8=
EXTT9=
EXTT10=
EXTT11=
EXTT12=
EXTT13=
EXTT14=
EXTT15=
EXTT16=
EXTT17=
EXTT18=
EXTT19=
EXTT20=
EXTT21=
PLAYORDER=
